HIERARCHY
ROOT Hips
{
  OFFSET 50.8665 96.8863 15.8874
  CHANNELS 6 Xposition Yposition Zposition Zrotation Xrotation Yrotation
  JOINT spine
  {
    OFFSET 0 7.96568 0.458067
    CHANNELS 3 Zrotation Xrotation Yrotation
    JOINT spine1
    {
      OFFSET 0 10.2431 0
      CHANNELS 3 Zrotation Xrotation Yrotation
      JOINT spine2
      {
        OFFSET 0 9.81475 0
        CHANNELS 3 Zrotation Xrotation Yrotation
        JOINT Neck
        {
          OFFSET 0 25.1986 1.20138
          CHANNELS 3 Zrotation Xrotation Yrotation
          JOINT Head
          {
            OFFSET 0 7.61315 0
            CHANNELS 3 Zrotation Xrotation Yrotation
            End Site
            {
              OFFSET 0 18.4281 -6.07733
            }
          }
        }
        JOINT RightShoulder
        {
          OFFSET -4.1327 10.5992 -0.575451
          CHANNELS 3 Zrotation Xrotation Yrotation
          JOINT RightArm
          {
            OFFSET 0 13.9018 0
            CHANNELS 3 Zrotation Xrotation Yrotation
            JOINT RightArmRoll
            {
              OFFSET 0 7.01789 0
              CHANNELS 3 Zrotation Xrotation Yrotation
              JOINT RightForeArm
              {
                OFFSET 0 20.4406 0
                CHANNELS 3 Zrotation Xrotation Yrotation
                JOINT RightForeArmRoll
                {
                  OFFSET 0 7.87516 0
                  CHANNELS 3 Zrotation Xrotation Yrotation
                  JOINT RightHand
                  {
                    OFFSET 0 15.8037 0
                    CHANNELS 3 Zrotation Xrotation Yrotation
                    End Site
                    {
                      OFFSET 0 0 0
                    }
                  }
                }
              }
            }
          }
        }
        JOINT LeftShoulder
        {
          OFFSET 4.1327 10.5992 -0.575451
          CHANNELS 3 Zrotation Xrotation Yrotation
          JOINT LeftArm
          {
            OFFSET 0 13.9018 0
            CHANNELS 3 Zrotation Xrotation Yrotation
            JOINT LeftArmRoll
            {
              OFFSET 0 7.01789 0
              CHANNELS 3 Zrotation Xrotation Yrotation
              JOINT LeftForeArm
              {
                OFFSET 0 20.4406 0
                CHANNELS 3 Zrotation Xrotation Yrotation
                JOINT LeftForeArmRoll
                {
                  OFFSET 0 7.87516 0
                  CHANNELS 3 Zrotation Xrotation Yrotation
                  JOINT LeftHand
                  {
                    OFFSET 0 15.8037 0
                    CHANNELS 3 Zrotation Xrotation Yrotation
                    End Site
                    {
                      OFFSET 0 0 0
                    }
                  }
                }
              }
            }
          }
        }
      }
    }
  }
  JOINT RightUpLeg
  {
    OFFSET -7.06048 -1.2947 -1.0861
    CHANNELS 3 Zrotation Xrotation Yrotation
    JOINT RightUpLegRoll
    {
      OFFSET 0 18.5308 0
      CHANNELS 3 Zrotation Xrotation Yrotation
      JOINT RightLeg
      {
        OFFSET 0 -22.9476 0
        CHANNELS 3 Zrotation Xrotation Yrotation
        JOINT RightLegRoll
        {
          OFFSET 0 23.0226 0
          CHANNELS 3 Zrotation Xrotation Yrotation
          JOINT RightFoot
          {
            OFFSET 0 19.1625 0
            CHANNELS 3 Zrotation Xrotation Yrotation
            JOINT RightToeBase
            {
              OFFSET 0 16.0188 0
              CHANNELS 3 Zrotation Xrotation Yrotation
              End Site
              {
                OFFSET 0.00678979 7.75782 -0.894206
              }
            }
          }
        }
      }
    }
  }
  JOINT LeftUpLeg
  {
    OFFSET 7.06048 -1.2947 -1.0861
    CHANNELS 3 Zrotation Xrotation Yrotation
    JOINT LeftUpLegRoll
    {
      OFFSET 0 18.5309 0
      CHANNELS 3 Zrotation Xrotation Yrotation
      JOINT LeftLeg
      {
        OFFSET 0 22.9475 0
        CHANNELS 3 Zrotation Xrotation Yrotation
        JOINT LeftLegRoll
        {
          OFFSET 0 23.2355 0
          CHANNELS 3 Zrotation Xrotation Yrotation
          JOINT LeftFoot
          {
            OFFSET 0 18.9496 0
            CHANNELS 3 Zrotation Xrotation Yrotation
            JOINT LeftToeBase
            {
              OFFSET 0 16.0188 0
              CHANNELS 3 Zrotation Xrotation Yrotation
              End Site
              {
                OFFSET -0.0304289 7.75782 -0.894207
              }
            }
          }
        }
      }
    }
  }
}
MOTION
Frames: 12
Frame Time: 0.00208333
52.7587 96.8883 16.081 2.20686 -7.67439 0.872495 0.0488179 -0.857107 -0.343831 0.0891824 2.28841 -0.684368 0.0975723 3.93343 -0.686451 2.52904 27.7622 1.30059 -6.69763 11.2118 2.28962 16.9187 -12.7238 -9.64812 11.354 25.5381 82.0572 -1.39512e-005 1.45278e-006 -1.34203e-006 -5.75816 81.8136 9.6161 -2.33651e-006 -1.48624e-006 -3.01324 8.03011 -4.95137 0.697627 -24.8989 -5.19373 0.533412 -6.45033 42.8396 -108.142 1.59028e-014 6.36111e-015 7.95139e-015 88.0692 86.4351 -95.7958 -6.18877e-006 -1.40438e-006 3.00147 -8.03025 -4.9514 -0.697632 170.163 -7.96634 7.21402 180 7.0149e-015 178.698 178.215 6.52993 179.676 3.03992e-006 -3.51846e-006 0.0983064 -19.0537 68.3117 19.8003 8.13649 25.2327 -3.48774 -176.516 -8.05562 -0.971161 4.5067e-006 -1.99009e-005 -1.30066 -1.75311 -4.67309 0.0106571 3.13872e-007 2.19041e-006 -0.0491257 18.5631 67.6902 -19.2784 -8.1365 25.2327 3.48774 
52.7635 96.8865 16.0734 2.22341 -7.671 0.87705 0.0486874 -0.859687 -0.342601 0.0894226 2.28325 -0.682238 0.0977879 3.92827 -0.684322 2.72346 27.7711 1.21318 -6.72264 11.2524 2.2802 16.8622 -12.7239 -9.65147 11.2843 25.6001 82.0521 -1.39512e-005 1.45278e-006 -1.34203e-006 -5.86317 81.7936 9.70302 -2.33651e-006 -1.48624e-006 -3.01324 8.03011 -4.95137 0.697627 -24.9646 -5.16939 0.512911 -6.63034 42.8233 -107.772 1.59028e-014 -2.22639e-014 -3.18055e-015 86.9817 86.3911 -94.6402 -6.18877e-006 -1.40438e-006 3.00148 -8.03025 -4.9514 -0.697632 170.141 -7.95147 7.22416 180 7.0149e-015 178.698 178.214 6.54596 179.676 3.03992e-006 -3.51846e-006 0.0984825 -19.0599 68.3195 19.807 8.13649 25.2327 -3.48774 -176.536 -8.04898 -0.96091 4.5067e-006 -1.99009e-005 -1.30034 -1.75521 -4.67327 0.0103812 3.13872e-007 2.19041e-006 -0.0491439 18.5635 67.6904 -19.279 -8.1365 25.2327 3.48774 
52.7685 96.8735 16.0789 2.2399 -7.66911 0.880664 0.0490118 -0.86196 -0.341607 0.0906633 2.2787 -0.680715 0.099012 3.92373 -0.682819 2.90926 27.7737 1.13068 -6.74905 11.2997 2.27295 16.8019 -12.7216 -9.65187 11.2267 25.6634 82.0362 -1.39512e-005 1.45278e-006 -1.34203e-006 -5.98604 81.7525 9.80252 -2.33651e-006 -1.48624e-006 -3.01324 8.03011 -4.95137 0.697627 -25.0406 -5.14668 0.49529 -6.80646 42.811 -107.411 1.27222e-014 -1.59028e-015 3.18055e-015 85.6186 86.3392 -93.2026 -6.18877e-006 -1.40438e-006 3.00149 -8.03025 -4.9514 -0.697632 170.118 -7.93766 7.23492 180 7.0149e-015 178.699 178.212 6.56261 179.676 3.03992e-006 -3.51846e-006 0.0986517 -19.0662 68.3274 19.8138 8.13649 25.2327 -3.48774 -176.555 -8.04399 -0.950528 4.5067e-006 -1.99009e-005 -1.30005 -1.75702 -4.67374 0.0101188 3.13872e-007 2.19041e-006 -0.0491625 18.5638 67.6905 -19.2794 -8.1365 25.2327 3.48774 
52.7767 96.8781 16.0644 2.25624 -7.66851 0.883416 0.0497204 -0.863943 -0.340827 0.0927432 2.27473 -0.679733 0.101082 3.91976 -0.681869 3.08752 27.7701 1.05249 -6.77661 11.3526 2.26753 16.7393 -12.7173 -9.64979 11.1806 25.7279 82.0106 -1.39512e-005 1.45278e-006 -1.34203e-006 -6.12334 81.692 9.91169 -2.33651e-006 -1.48624e-006 -3.01324 8.03011 -4.95137 0.697627 -25.1253 -5.12564 0.480456 -6.98004 42.8016 -107.06 6.36111e-015 0 1.59028e-015 84.0106 86.2784 -91.5141 -6.18877e-006 -1.40438e-006 3.0015 -8.03025 -4.9514 -0.697632 170.095 -7.92479 7.24615 180 7.0149e-015 178.699 178.209 6.5797 179.676 3.03992e-006 -3.51846e-006 0.0988147 -19.0726 68.3354 19.8207 8.13649 25.2327 -3.48774 -176.575 -8.0404 -0.940113 4.5067e-006 -1.99009e-005 -1.29977 -1.75856 -4.67449 0.00987242 3.13872e-007 2.19041e-006 -0.0491814 18.5641 67.6904 -19.2798 -8.1365 25.2327 3.48774 
52.7728 96.8683 16.0725 2.27229 -7.669 0.885384 0.0507422 -0.865656 -0.340242 0.0955012 2.2713 -0.679224 0.103837 3.91632 -0.681405 3.25931 27.7606 0.977969 -6.80507 11.4102 2.2636 16.6762 -12.7116 -9.64572 11.1454 25.7937 81.9764 -1.39512e-005 1.45278e-006 -1.34203e-006 -6.27165 81.6139 10.0277 -2.33651e-006 -1.48624e-006 -3.01324 8.03011 -4.95137 0.697627 -25.2174 -5.10633 0.468316 -7.15239 42.7944 -106.717 3.18055e-015 0 4.77083e-015 82.1907 86.2079 -89.6078 -6.18877e-006 -1.40438e-006 3.00151 -8.03025 -4.9514 -0.697632 170.073 -7.91275 7.25768 180 7.0149e-015 178.7 178.207 6.59706 179.676 3.03992e-006 -3.51846e-006 0.0989722 -19.079 68.3435 19.8276 8.13649 25.2327 -3.48774 -176.595 -8.03793 -0.92976 4.5067e-006 -1.99009e-005 -1.29953 -1.75987 -4.67551 0.00964428 3.13872e-007 2.19041e-006 -0.0492006 18.5642 67.6902 -19.28 -8.1365 25.2327 3.48774 
52.7783 96.8696 16.0632 2.28796 -7.67036 0.886646 0.0520065 -0.867117 -0.339829 0.0987761 2.26837 -0.67912 0.107113 3.91339 -0.681354 3.42571 27.7454 0.906502 -6.83417 11.4712 2.26081 16.6144 -12.7048 -9.64017 11.1206 25.8608 81.9348 -1.39512e-005 1.45278e-006 -1.34203e-006 -6.42765 81.5198 10.1477 -2.33651e-006 -1.48624e-006 -3.01324 8.03011 -4.95137 0.697627 -25.3155 -5.0888 0.458778 -7.32477 42.7885 -106.384 6.36111e-015 3.18055e-015 1.11319e-014 80.1931 86.1266 -87.5184 -6.18877e-006 -1.40438e-006 3.00151 -8.03025 -4.9514 -0.697632 170.05 -7.90141 7.26937 180 7.0149e-015 178.7 178.204 6.61452 179.676 3.03992e-006 -3.51846e-006 0.0991251 -19.0854 68.3514 19.8345 8.13649 25.2327 -3.48774 -176.615 -8.03635 -0.919565 4.5067e-006 -1.99009e-005 -1.2993 -1.76098 -4.67681 0.0094368 3.13872e-007 2.19041e-006 -0.04922 18.5643 67.6899 -19.2802 -8.1365 25.2327 3.48774 
52.7842 96.8738 16.0664 2.30311 -7.67239 0.887279 0.0534424 -0.868344 -0.339569 0.102407 2.2659 -0.679354 0.11075 3.91093 -0.681647 3.58782 27.7248 0.83746 -6.86366 11.5346 2.25883 16.5554 -12.6974 -9.63361 11.1055 25.9292 81.887 -1.39512e-005 1.45278e-006 -1.34203e-006 -6.58819 81.4116 10.2691 -2.33651e-006 -1.48624e-006 -3.01324 8.03011 -4.95137 0.697627 -25.4183 -5.0731 0.45175 -7.49847 42.7829 -106.06 9.54166e-015 -7.95139e-015 1.11319e-014 78.0528 86.0335 -85.2812 -6.18877e-006 -1.40438e-006 3.00152 -8.03025 -4.9514 -0.697632 170.028 -7.89066 7.28104 180 7.0149e-015 178.7 178.201 6.63191 179.677 3.03992e-006 -3.51846e-006 0.0992741 -19.0918 68.3593 19.8412 8.13649 25.2327 -3.48774 -176.634 -8.03537 -0.909624 4.5067e-006 -1.99009e-005 -1.29909 -1.76192 -4.67839 0.00925232 3.13872e-007 2.19041e-006 -0.0492397 18.5643 67.6895 -19.2802 -8.1365 25.2327 3.48774 
52.7872 96.8708 16.0603 2.31764 -7.67488 0.887361 0.0549791 -0.869355 -0.339441 0.106232 2.26387 -0.679858 0.114584 3.90889 -0.682214 3.74671 27.6991 0.770215 -6.89328 11.5993 2.2573 16.5011 -12.6897 -9.62654 11.0997 25.999 81.834 -1.39512e-005 1.45278e-006 -1.34203e-006 -6.75031 81.291 10.3896 -2.33651e-006 -1.48624e-006 -3.01324 8.03011 -4.95137 0.697627 -25.5244 -5.05927 0.44714 -7.67468 42.7767 -105.746 9.54166e-015 1.43125e-014 9.54166e-015 75.8054 85.9278 -82.9318 -6.18877e-006 -1.40438e-006 3.00153 -8.03025 -4.9514 -0.697632 170.006 -7.88038 7.29254 180 7.0149e-015 178.7 178.197 6.64907 179.677 3.03992e-006 -3.51846e-006 0.0994199 -19.098 68.367 19.8478 8.13649 25.2327 -3.48774 -176.652 -8.03475 -0.900034 4.5067e-006 -1.99009e-005 -1.2989 -1.76274 -4.68024 0.00909322 3.13872e-007 2.19041e-006 -0.0492595 18.5642 67.689 -19.2802 -8.1365 25.2327 3.48774 
52.792 96.8709 16.0474 2.33143 -7.67762 0.886971 0.0565458 -0.87017 -0.339423 0.110091 2.26222 -0.680566 0.118454 3.90725 -0.682985 3.90346 27.6684 0.704138 -6.92278 11.6644 2.25589 16.4531 -12.6824 -9.61946 11.1024 26.0701 81.7771 -1.39512e-005 1.45278e-006 -1.34203e-006 -6.91129 81.1598 10.5068 -2.33651e-006 -1.48624e-006 -3.01324 8.03011 -4.95137 0.697627 -25.6324 -5.04738 0.444855 -7.85461 42.7692 -105.442 -1.27222e-014 0 1.59028e-015 73.4846 85.8087 -80.5045 -6.18877e-006 -1.40438e-006 3.00154 -8.03025 -4.9514 -0.697632 169.986 -7.87046 7.30371 180 7.01491e-015 178.701 178.194 6.66579 179.677 3.03992e-006 -3.51846e-006 0.0995635 -19.104 68.3744 19.8541 8.13649 25.2327 -3.48774 -176.67 -8.03421 -0.890892 4.5067e-006 -1.99009e-005 -1.29872 -1.76347 -4.68237 0.00896186 3.13872e-007 2.19041e-006 -0.0492794 18.564 67.6884 -19.28 -8.1365 25.2327 3.48774 
52.7941 96.8699 16.0462 2.34437 -7.68041 0.886185 0.0580717 -0.870807 -0.339497 0.113823 2.26094 -0.681409 0.122198 3.90596 -0.683889 4.05918 27.6329 0.638601 -6.9519 11.7286 2.25424 16.4132 -12.6757 -9.61284 11.1131 26.1427 81.7175 -1.39512e-005 1.45278e-006 -1.34203e-006 -7.06864 81.0196 10.619 -2.33651e-006 -1.48624e-006 -3.01324 8.03011 -4.95137 0.697627 -25.7408 -5.03747 0.444804 -8.03942 42.7593 -105.148 -3.18055e-015 2.38542e-014 7.95139e-015 71.1231 85.6758 -78.0321 -6.18877e-006 -1.40438e-006 3.00155 -8.03025 -4.9514 -0.697632 169.966 -7.86077 7.31439 180 7.01491e-015 178.701 178.191 6.6819 179.677 3.03992e-006 -3.51846e-006 0.0997055 -19.1097 68.3814 19.8601 8.13649 25.2327 -3.48774 -176.686 -8.03351 -0.882292 4.5067e-006 -1.99009e-005 -1.29856 -1.76413 -4.68477 0.00886059 3.13872e-007 2.19041e-006 -0.0492994 18.5638 67.6877 -19.2797 -8.1365 25.2327 3.48774 
52.7955 96.8765 16.0415 2.35634 -7.68304 0.885082 0.059486 -0.871285 -0.33964 0.117267 2.25997 -0.682321 0.125654 3.90499 -0.684857 4.21494 27.5931 0.572977 -6.98038 11.791 2.25203 16.383 -12.6702 -9.60719 11.1312 26.2167 81.6563 -1.39512e-005 1.45278e-006 -1.34203e-006 -7.22012 80.8723 10.7243 -2.33651e-006 -1.48624e-006 -3.01324 8.03011 -4.95137 0.697627 -25.8483 -5.02959 0.446895 -8.23027 42.7462 -104.864 1.90833e-014 -2.38542e-014 -0 68.7503 85.5285 -75.5445 -6.18877e-006 -1.40438e-006 3.00156 -8.03025 -4.9514 -0.697632 169.948 -7.85119 7.32443 180 7.01491e-015 178.701 178.188 6.69727 179.678 3.03992e-006 -3.51846e-006 0.0998467 -19.1152 68.3881 19.8658 8.13649 25.2327 -3.48774 -176.702 -8.03237 -0.874332 4.5067e-006 -1.99009e-005 -1.29842 -1.76477 -4.68744 0.00879177 3.13872e-007 2.19041e-006 -0.0493194 18.5636 67.6869 -19.2793 -8.1365 25.2327 3.48774 
52.8008 96.8744 16.0358 2.36723 -7.6853 0.88374 0.0607179 -0.871621 -0.339832 0.120261 2.25929 -0.683233 0.12866 3.90431 -0.685818 4.37183 27.5489 0.506636 -7.00796 11.8505 2.24889 16.3643 -12.6663 -9.603 11.156 26.2923 81.5949 -1.39512e-005 1.45278e-006 -1.34203e-006 -7.36368 80.7197 10.8213 -2.33651e-006 -1.48624e-006 -3.01324 8.03011 -4.95137 0.697627 -25.9536 -5.02379 0.451035 -8.42827 42.729 -104.591 3.18055e-015 -4.77083e-015 -0 66.3924 85.3667 -73.068 -6.18877e-006 -1.40438e-006 3.00157 -8.03025 -4.9514 -0.697632 169.931 -7.84161 7.33365 180 7.01491e-015 178.701 178.185 6.71167 179.678 3.03992e-006 -3.51846e-006 0.099988 -19.1203 68.3943 19.8711 8.13649 25.2327 -3.48774 -176.716 -8.03054 -0.867108 4.5067e-006 -1.99009e-005 -1.29829 -1.76541 -4.69038 0.00875777 3.13872e-007 2.19041e-006 -0.0493395 18.5633 67.686 -19.2788 -8.1365 25.2327 3.48774 
